<?xml version="1.0" encoding="UTF-8"?>
<svg id="Capa_1" data-name="Capa 1" xmlns="http://www.w3.org/2000/svg" viewBox="0 0 2048 2048">
  <defs>
    <style>
      .cls-1 {
        fill: #fdfefd;
      }

      .cls-2 {
        fill: #317332;
      }

      .cls-3 {
        fill: #73611f;
      }
    </style>
  </defs>
  <path class="cls-1" d="M0,2048V0h2048v2048H0ZM1419.59,1950.81c39.44-15.72,77.47-32.8,114.24-53.72,7.91-3.18,14.21-7.41,20.97-12.01,14.65-7.24,27.5-16.32,41.22-24.92,12.1-7.58,22.91-15.22,34.6-23.54,40.34-28.71,77.96-59.91,113.32-94.69,51.27-50.43,92.26-98.69,132.54-158.47,29.05-43.11,54.45-87.74,76.08-135.1,19-41.61,38.92-94.01,50.81-138.07,5.78-21.42,11.61-41.9,16.26-63.81,9.12-43,16.15-85.68,19.5-129.58,4.23-55.53,4.24-110.46-1.3-165.96-4.25-42.59-9.57-84.21-20.07-125.41l-11.89-46.64c-31.36-123.05-98.98-248.34-177.54-348.46-45.97-58.59-99.01-110.85-157.17-157.56-51.78-41.58-107.63-78.02-166.98-108.02-78.41-39.64-161.19-68.3-247.22-85.45-32.44-6.47-64.05-10.62-96.96-13.83-79.48-7.76-158.42-4.81-237.35,7.17-58.32,8.85-114.94,23.61-170.57,43.37-111.76,39.7-211.84,98.15-302.36,174.65-64.93,54.87-122.56,117.79-171.22,187.59-68.85,98.78-119.52,208.69-148.32,325.5-12.36,50.14-21.58,102.18-25.73,153.43-5.68,70.08-4.46,139.81,4.54,209.69,5.86,45.51,15.83,89.29,27.52,133.4,7.59,28.61,16.67,55.43,26.9,83.06,10.62,28.67,22.37,55.66,35.57,83.26,10.49,21.95,21.94,42.18,33.82,63.31,8.36,14.88,17.37,28.35,26.57,42.67s18.72,27.97,28.98,41.87c43.95,59.54,114.6,138.32,172.26,182.77l31.13,24c19.09,14.72,38.48,28.06,58.93,41.26,191.35,123.52,417.74,173.55,643.79,145.17,74.26-9.32,155.84-29.32,225.13-56.94Z"/>
  <g>
    <path class="cls-3" d="M1419.59,1950.81c-69.29,27.62-150.87,47.61-225.13,56.94-226.05,28.38-452.44-21.65-643.79-145.17-20.45-13.2-39.84-26.54-58.93-41.26l-31.13-24c-57.66-44.45-128.31-123.23-172.26-182.77-10.27-13.91-19.66-27.36-28.98-41.87s-18.2-27.79-26.57-42.67c-11.88-21.13-23.32-41.37-33.82-63.31-13.2-27.6-24.95-54.59-35.57-83.26-10.24-27.63-19.32-54.45-26.9-83.06-11.7-44.11-21.66-87.88-27.52-133.4-9-69.88-10.23-139.61-4.54-209.69,4.16-51.25,13.37-103.29,25.73-153.43,28.81-116.81,79.47-226.72,148.32-325.5,48.66-69.8,106.29-132.72,171.22-187.59,90.52-76.51,190.6-134.96,302.36-174.65,55.63-19.76,112.24-34.52,170.57-43.37,78.93-11.98,157.87-14.93,237.35-7.17,32.91,3.22,64.52,7.37,96.96,13.83,86.03,17.15,168.8,45.81,247.22,85.45,59.34,30,115.2,66.43,166.98,108.02,58.16,46.71,111.2,98.98,157.17,157.56,78.56,100.12,146.18,225.41,177.54,348.46l11.89,46.64c10.5,41.2,15.82,82.82,20.07,125.41,5.54,55.49,5.53,110.42,1.3,165.96-3.34,43.89-10.38,86.58-19.5,129.58-4.65,21.91-10.48,42.39-16.26,63.81-11.89,44.06-31.8,96.46-50.81,138.07-21.62,47.36-47.03,91.99-76.08,135.1-40.28,59.78-81.26,108.04-132.54,158.47-35.36,34.78-72.98,65.98-113.32,94.69-11.69,8.32-22.51,15.96-34.6,23.54-13.72,8.6-26.57,17.68-41.22,24.92-6.76,4.59-13.05,8.82-20.97,12.01-36.76,20.92-74.79,38-114.24,53.72ZM895.08,1829.01c.09,1.48,12.45-1.55,13.72-2.29,5.83-3.4,12.03-4.06,18.29-5.59l22.01-5.38c5.06-1.24,9.39-2.31,14.87-3.2l17.05-2.75,21.01-1.87c6.65-.59,12.92-2.05,19.51-2.55l33.6-2.57c3.04-.23,5.85.16,8.81-.13,13.56-1.37,17.78-.89,31.01.07l12.03.87c6.96.5,29.49,2.09,34.2,2.9l15.47,2.65c8.49,1.46,16.52,2.74,25.56,2.48.13,0,.4.06.91.13.15.49.49.75.88.14,27.34,4.22,79.76,18.1,102.86,33.12,10.45,6.79,20.79,11.19,33.46,12.62,19.94,2.25,39.36,2.37,59.74.42,49.82-4.78,98.28-12.51,146.98-24.37,18.84-4.59,38.86-6.31,56.61-13.48,38.29-22.05,71.34-51.11,104.66-79.72,9.61-8.25,17.4-16.09,26.51-24.89,128.42-124.11,218.75-279.22,260.74-453.47,7.56-31.39,14.12-61.55,18.14-93.58,9.06-72.11,12.17-126.06,5.8-198.98-2.65-30.3-5.39-59.51-10.67-89.56-8.01-45.58-25.59-113.63-41.76-156.96-3.79-10.16-23.6-62.76-28.1-67.92-2.7-3.1-1.23-7.96-3.36-11.74-2.54-4.5-5.95-9.68-8.96-14.28.38-2.15-1.03-3.6-2.13-5.87-34.68-71.22-85.86-147.72-138.93-206.73-28.59-31.79-60.41-63.58-92.88-91.3-13.57-11.58-26.32-22.6-40.66-33.42-21.1-15.92-42.09-31.13-64.57-45.44-76.46-48.68-158.98-86.62-246.37-111.26-109.34-30.83-216.84-40.41-330.11-31.09-86.63,7.13-175.7,28.62-256.41,60.59-76.68,30.37-148.24,70.37-214.24,119.7-25.08,18.75-48.51,38.37-71.85,59.33-33.12,29.74-63.17,62.08-91.59,96.48-90.91,110.06-157.19,241.25-190.35,380.4-20.74,87.05-30.44,183.86-25.01,273.07,2.33,38.26,5.68,75.79,13.78,113.1l1.29,5.93c4.38,20.19,8.01,39.66,13.16,59.89,13.79,54.19,32.54,106.21,55.4,157.15,27.52,61.31,60.38,115.08,100.13,169.18,27.28,37.13,57.59,71.79,90.05,104.56,42.15,42.55,87.87,80.37,137.69,113.5,15.73,2.65,30.09,6.08,45.55,9.4l56.81,12.18c32.86,7.09,65.01,12.51,98.59,15.69,34.66,3.28,77.51,1.82,109.36-12.64,10.64-4.83,20.9-9.64,31.71-12.52Z"/>
    <path class="cls-2" d="M1183.12,1811.78l.88.14c-.39.6-.73.34-.88-.14Z"/>
    <g>
      <path class="cls-1" d="M1906.66,629.14c-99.8-103.63-205.63-186.78-339.18-244.68-32.6-14.14-65.22-25.23-99.55-34.52-42.08-11.39-84.15-18.47-127.9-19.11-70.99-1.03-136.36,14.19-196.42,51.83l-8.11,5.08c-67.75,42.47-116.47,123.96-133.81,201.9-18.97,85.25-14.62,156.27,2.43,241.24,5.06,25.24,12.33,48.69,19.82,73.18,10.5,34.37,23.22,66.94,38.18,99.56,9.02,19.67,17.48,38.42,27.85,57.41l25.44,46.58,40.41,66.45c11.53,18.96,19.91,38.55,28.07,59.04,5.65,14.2,9.3,27.88,13.22,42.74,19.62,74.52,21.46,140.83,6.56,216.62-.69,1.94-1.55,3.54-1.53.98-3.24-36.08-7-67.53-17.22-101.41-8.37-27.77-18.4-54.06-32.3-79.51-8.11-14.84-15.9-28.59-25.64-42.58-25.84-37.12-57.39-69.09-93.66-96.28-26.05-19.53-53.77-35.23-83.62-48.15-26.21-11.35-52.77-19.37-80.47-25.88-4.41-1.04-7.82-2.89-11.31-5.72-17.57-14.22-34.48-28.23-50.86-44.1-36.89-35.73-69.39-75.41-96.83-118.83-31.25-49.46-54.56-102.22-69.05-158.95-9.46-37.02-16.06-74.27-16.24-112.94v-1.17c-.18-38.07.69-76.01,7.04-114.28,8.8-53.04,25.34-103.89,48.46-152.19,7.91-16.52,15.72-31.48,25.15-47.06,13.8-22.81,27.73-44.56,44.25-65.79,35.07-45.07,75.31-85.23,120.08-120.56,8.26-6.51,16.12-11.82,24.02-19-60.42,5.63-118.75,19.61-175.16,40.82-104.48,39.28-195.92,101.87-265.06,189.91-50.35,64.11-85.78,139.41-99.94,219.92-9.3,52.87-9.56,100.37-.63,153.43,7.02,41.74,19.47,81.01,37.61,119.35,30.94,65.41,72.44,117.28,126.7,165.19,39.16,34.58,83.07,62.17,130.23,84.78,42.44,20.35,86.44,35.05,132.37,45.41,28.75,6.49,56.69,10.15,85.95,14.15,39.32,29.13,73.2,62.3,101.85,102.2,11.03,15.37,21.24,30.12,30.2,46.71,11.98,22.19,22.94,44.19,31.79,68.01,27.56,74.18,37.48,156.17,25.74,234.65-6.65,44.43-19.17,87.01-38.11,127.94-111.07-7-220.53-55.86-304.16-127.89-52.62-45.32-94.83-96.92-123.34-160.51-.42-.93-.29-1.86-.85-2.63-.69-.95-1.94-.08-2.6,1.2-24.72,48.18-23.49,99.98-4.42,149.97,4.73,12.39,9.54,23.54,16.2,35.11,13.8,23.95,30.37,45.33,49.92,65.13,66.62,67.45,152.73,107.45,246.85,117.12-10.81,2.88-21.07,7.69-31.71,12.52-31.85,14.46-74.7,15.93-109.36,12.64-33.58-3.18-65.74-8.61-98.59-15.69l-56.81-12.18c-15.46-3.31-29.83-6.74-45.55-9.4-49.82-33.14-95.54-70.95-137.69-113.5-32.45-32.76-62.77-67.42-90.05-104.56-39.75-54.1-72.61-107.87-100.13-169.18-22.87-50.94-41.61-102.96-55.4-157.15-5.15-20.23-8.78-39.7-13.16-59.89l-1.29-5.93c-8.1-37.31-11.46-74.84-13.78-113.1-5.42-89.2,4.27-186.02,25.01-273.07,33.16-139.15,99.44-270.35,190.35-380.4,28.42-34.4,58.46-66.75,91.59-96.48,23.35-20.96,46.77-40.58,71.85-59.33,66-49.33,137.56-89.33,214.24-119.7,80.71-31.97,169.78-53.46,256.41-60.59,113.27-9.33,220.77.26,330.11,31.09,87.39,24.64,169.91,62.58,246.37,111.26,22.48,14.31,43.47,29.52,64.57,45.44,14.34,10.82,27.09,21.84,40.66,33.42,32.47,27.72,64.3,59.52,92.88,91.3,53.07,59.01,104.24,135.51,138.93,206.73,1.11,2.27,2.52,3.72,2.13,5.87Z"/>
      <path class="cls-2" d="M624.96,657.92c-1.23-.21-1.22,1.38,0,1.17.17,38.68,6.78,75.92,16.24,112.94,14.49,56.73,37.8,109.5,69.05,158.95,27.44,43.43,59.94,83.11,96.83,118.83,16.38,15.87,33.29,29.88,50.86,44.1,3.49,2.83,6.9,4.68,11.31,5.72,27.7,6.51,54.26,14.54,80.47,25.88,29.85,12.92,57.57,28.62,83.62,48.15,36.27,27.19,67.81,59.16,93.66,96.28,9.74,14,17.53,27.74,25.64,42.58,13.9,25.45,23.93,51.74,32.3,79.51,10.21,33.88,13.98,65.32,17.22,101.41-.02,2.57.84.97,1.53-.98,14.91-75.78,13.06-142.1-6.56-216.62-3.91-14.86-7.57-28.54-13.22-42.74-8.15-20.49-16.54-40.08-28.07-59.04l-40.41-66.45-25.44-46.58c-10.37-18.99-18.83-37.74-27.85-57.41-14.96-32.62-27.68-65.18-38.18-99.56-7.49-24.49-14.75-47.94-19.82-73.18-17.04-84.97-21.39-155.99-2.43-241.24,17.34-77.94,66.06-159.43,133.81-201.9l8.11-5.08c60.06-37.65,125.43-52.87,196.42-51.83,43.75.64,85.82,7.72,127.9,19.11,34.34,9.29,66.95,20.39,99.55,34.52,133.55,57.9,239.38,141.04,339.18,244.68,3.01,4.6,6.43,9.78,8.96,14.28,2.13,3.77.65,8.64,3.36,11.74-69.85-35.86-141.56-64.57-219.32-81.17-113.09-24.14-241.91-18.57-342.2,43.59l-4.92,3.05c-21.81,13.52-41.25,29.22-59.61,47.39-29.72,29.41-52.86,63.94-70.85,101.8-31.58,66.45-44.76,148.61-44.08,222.19.46,49.57,5.49,97.97,15.46,146.25,1.79,8.69,9.12,42.72,17.48,47.12,7.56-43.85,25.44-84.37,53.97-118.36,1.58-1.89,2.81-3.09,4.19-5.04,5.89-8.32,13.3-15.12,20.51-22.32,30.9-30.87,79.12-62.44,119.71-77.06l3.77-1.36c40.57-14.61,82.01-24.37,125.3-26.75,40.38-2.21,80.34-.72,119.58,8.33l10.58,2.44c54.78,12.64,105.91,36.61,151.4,69.38,3.06,2.21,4.72,4.72,8.05,6.34,6.08,2.94,10.66,8.35,16.22,12.82,10.9,8.76,20.47,18.69,30.25,28.67l5.07,5.17c21.23,21.65,37.11,47.95,49.94,75.71,20.11,43.5,28.21,90.6,22.55,139.04-44.44-46.06-93.75-80.59-149.51-108.92l-26.69-12.43-5.71-2.26c-37.95-15-75.75-27.94-115.78-36.26-53.84-11.18-108.29-14.68-163.45-11.66-92.7,5.09-182.77,31.46-262.83,77.81-3.13,1.81-5.57,2.94-6.94,6.21,15.08,13.5,27.58,28.42,39.52,44.47,8.66,11.65,16.55,22.54,23.95,35.07,56.73,96.06,71.08,210.25,42.23,318.18-22.13,82.79-73.36,162.46-140.95,215.24-1.64,1.28-3.22,2.09-3.68,3.81-9.04.26-17.07-1.02-25.56-2.48l-15.47-2.65c-4.7-.81-27.24-2.4-34.2-2.9l-12.03-.87c-13.24-.96-17.45-1.43-31.01-.07-2.95.3-5.76-.1-8.81.13l-33.6,2.57c-6.59.5-12.86,1.96-19.51,2.55l-21.01,1.87-17.05,2.75c-5.48.88-9.8,1.96-14.87,3.2l-22.01,5.38c-6.26,1.53-12.47,2.19-18.29,5.59-1.27.74-13.63,3.77-13.72,2.29-94.13-9.67-180.24-49.67-246.85-117.12-19.55-19.8-36.12-41.17-49.92-65.13-6.67-11.57-11.48-22.71-16.2-35.11-19.06-49.99-20.29-101.79,4.42-149.97.66-1.29,1.9-2.15,2.6-1.2.56.77.44,1.7.85,2.63,28.51,63.59,70.72,115.19,123.34,160.51,83.63,72.03,193.09,120.89,304.16,127.89,18.94-40.94,31.46-83.52,38.11-127.94,11.74-78.48,1.82-160.47-25.74-234.65-8.85-23.81-19.81-45.82-31.79-68.01-8.96-16.59-19.16-31.35-30.2-46.71-28.65-39.9-62.53-73.08-101.85-102.2-29.26-4-57.2-7.66-85.95-14.15-45.93-10.36-89.93-25.06-132.37-45.41-47.16-22.61-91.07-50.2-130.23-84.78-54.25-47.91-95.76-99.77-126.7-165.19-18.13-38.34-30.58-77.6-37.61-119.35-8.93-53.06-8.67-100.56.63-153.43,14.16-80.51,49.59-155.8,99.94-219.92,69.14-88.03,160.58-150.63,265.06-189.91,56.42-21.21,114.74-35.19,175.16-40.82-7.9,7.19-15.76,12.49-24.02,19-44.77,35.33-85.01,75.49-120.08,120.56-16.52,21.23-30.46,42.98-44.25,65.79-9.43,15.58-17.24,30.54-25.15,47.06-23.11,48.3-39.66,99.14-48.46,152.19-6.35,38.27-7.22,76.21-7.04,114.28Z"/>
      <path class="cls-1" d="M1918.98,655.16c4.5,5.16,24.31,57.76,28.1,67.92,16.17,43.33,33.74,111.38,41.76,156.96,5.28,30.04,8.02,59.25,10.67,89.56,6.37,72.92,3.26,126.87-5.8,198.98-4.03,32.03-10.58,62.19-18.14,93.58-41.99,174.25-132.32,329.36-260.74,453.47-9.11,8.8-16.9,16.64-26.51,24.89-33.32,28.6-66.37,57.67-104.66,79.72-17.75,7.17-37.78,8.9-56.61,13.48-48.69,11.85-97.16,19.58-146.98,24.37-20.38,1.96-39.79,1.83-59.74-.42-12.67-1.43-23.01-5.82-33.46-12.62-23.1-15.02-75.53-28.89-102.86-33.12l-.88-.14c-.51-.07-.79-.14-.91-.13.46-1.71,2.04-2.53,3.68-3.81,67.6-52.78,118.82-132.45,140.95-215.24,28.85-107.93,14.5-222.12-42.23-318.18-7.4-12.54-15.29-23.42-23.95-35.07-11.94-16.05-24.44-30.97-39.52-44.47,1.37-3.27,3.81-4.4,6.94-6.21,80.06-46.35,170.13-72.72,262.83-77.81,55.16-3.03,109.62.47,163.45,11.66,40.03,8.32,77.83,21.26,115.78,36.26l5.71,2.26,26.69,12.43c55.76,28.33,105.07,62.85,149.51,108.92,5.66-48.44-2.44-95.54-22.55-139.04-12.83-27.75-28.71-54.06-49.94-75.71l-5.07-5.17c-9.78-9.97-19.34-19.9-30.25-28.67-5.57-4.47-10.14-9.88-16.22-12.82-3.34-1.61-4.99-4.13-8.05-6.34-45.49-32.77-96.62-56.74-151.4-69.38l-10.58-2.44c-39.24-9.05-79.2-10.54-119.58-8.33-43.29,2.37-84.73,12.14-125.3,26.75l-3.77,1.36c-40.59,14.61-88.81,46.18-119.71,77.06-7.21,7.2-14.62,14-20.51,22.32-1.38,1.95-2.61,3.16-4.19,5.04-28.54,33.99-46.42,74.51-53.97,118.36-8.36-4.4-15.69-38.43-17.48-47.12-9.97-48.28-15-96.68-15.46-146.25-.69-73.58,12.49-155.74,44.08-222.19,17.99-37.86,41.14-72.39,70.85-101.8,18.36-18.17,37.81-33.88,59.61-47.39l4.92-3.05c100.29-62.16,229.11-67.74,342.2-43.59,77.76,16.6,149.47,45.31,219.32,81.17Z"/>
      <path class="cls-3" d="M624.96,659.08c-1.22.21-1.23-1.37,0-1.17v1.17Z"/>
    </g>
  </g>
</svg>