<?xml version="1.0" encoding="UTF-8"?>
<svg id="Capa_1" data-name="Capa 1" xmlns="http://www.w3.org/2000/svg" viewBox="0 0 1941.15 1954.2">
  <defs>
    <style>
      .cls-1 {
        fill: #317332;
      }

      .cls-2 {
        fill: #73611f;
      }
    </style>
  </defs>
  <path class="cls-2" d="M1318.6,1889.53c-69.29,27.62-150.87,47.61-225.13,56.94-226.05,28.38-452.44-21.65-643.79-145.17-20.45-13.2-39.84-26.54-58.93-41.26l-31.13-24c-57.66-44.45-128.31-123.23-172.26-182.77-10.27-13.91-19.66-27.36-28.98-41.87s-18.2-27.79-26.57-42.67c-11.88-21.13-23.32-41.37-33.82-63.31-13.2-27.6-24.95-54.59-35.57-83.26-10.24-27.63-19.32-54.45-26.9-83.06-11.7-44.11-21.66-87.88-27.52-133.4-9-69.88-10.23-139.61-4.54-209.69,4.16-51.25,13.37-103.29,25.73-153.43,28.81-116.81,79.47-226.72,148.32-325.5,48.66-69.8,106.29-132.72,171.22-187.59,90.52-76.51,190.6-134.96,302.36-174.65,55.63-19.76,112.24-34.52,170.57-43.37,78.93-11.98,157.87-14.93,237.35-7.17,32.91,3.22,64.52,7.37,96.96,13.83,86.03,17.15,168.8,45.81,247.22,85.45,59.34,30,115.2,66.43,166.98,108.02,58.16,46.71,111.2,98.98,157.17,157.56,78.56,100.12,146.18,225.41,177.54,348.46l11.89,46.64c10.5,41.2,15.82,82.82,20.07,125.41,5.54,55.49,5.53,110.42,1.3,165.96-3.34,43.89-10.38,86.58-19.5,129.58-4.65,21.91-10.48,42.39-16.26,63.81-11.89,44.06-31.8,96.46-50.81,138.07-21.62,47.36-47.03,91.99-76.08,135.1-40.28,59.78-81.26,108.04-132.54,158.47-35.36,34.78-72.98,65.98-113.32,94.69-11.69,8.32-22.51,15.96-34.6,23.54-13.72,8.6-26.57,17.68-41.22,24.92-6.76,4.59-13.05,8.82-20.97,12.01-36.76,20.92-74.79,38-114.24,53.72ZM794.09,1767.73c.09,1.48,12.45-1.55,13.72-2.29,5.83-3.4,12.03-4.06,18.29-5.59l22.01-5.38c5.06-1.24,9.39-2.31,14.87-3.2l17.05-2.75,21.01-1.87c6.65-.59,12.92-2.05,19.51-2.55l33.6-2.57c3.04-.23,5.85.16,8.81-.13,13.56-1.37,17.78-.89,31.01.07l12.03.87c6.96.5,29.49,2.09,34.2,2.9l15.47,2.65c8.49,1.46,16.52,2.74,25.56,2.48.13,0,.4.06.91.13.15.49.49.75.88.14,27.34,4.22,79.76,18.1,102.86,33.12,10.45,6.79,20.79,11.19,33.46,12.62,19.94,2.25,39.36,2.37,59.74.42,49.82-4.78,98.28-12.51,146.98-24.37,18.84-4.59,38.86-6.31,56.61-13.48,38.29-22.05,71.34-51.11,104.66-79.72,9.61-8.25,17.4-16.09,26.51-24.89,128.42-124.11,218.75-279.22,260.74-453.47,7.56-31.39,14.12-61.55,18.14-93.58,9.06-72.11,12.17-126.06,5.8-198.98-2.65-30.3-5.39-59.51-10.67-89.56-8.01-45.58-25.59-113.63-41.76-156.96-3.79-10.16-23.6-62.76-28.1-67.92-2.7-3.1-1.23-7.96-3.36-11.74-2.54-4.5-5.95-9.68-8.96-14.28.38-2.15-1.03-3.6-2.13-5.87-34.68-71.22-85.86-147.72-138.93-206.73-28.59-31.79-60.41-63.58-92.88-91.3-13.57-11.58-26.32-22.6-40.66-33.42-21.1-15.92-42.09-31.13-64.57-45.44-76.46-48.68-158.98-86.62-246.37-111.26-109.34-30.83-216.84-40.41-330.11-31.09-86.63,7.13-175.7,28.62-256.41,60.59-76.68,30.37-148.24,70.37-214.24,119.7-25.08,18.75-48.51,38.37-71.85,59.33-33.12,29.74-63.17,62.08-91.59,96.48-90.91,110.06-157.19,241.25-190.35,380.4-20.74,87.05-30.44,183.86-25.01,273.07,2.33,38.26,5.68,75.79,13.78,113.1l1.29,5.93c4.38,20.19,8.01,39.66,13.16,59.89,13.79,54.19,32.54,106.21,55.4,157.15,27.52,61.31,60.38,115.08,100.13,169.18,27.28,37.13,57.59,71.79,90.05,104.56,42.15,42.55,87.87,80.37,137.69,113.5,15.73,2.65,30.09,6.08,45.55,9.4l56.81,12.18c32.86,7.09,65.01,12.51,98.59,15.69,34.66,3.28,77.51,1.82,109.36-12.64,10.64-4.83,20.9-9.64,31.71-12.52Z"/>
  <path class="cls-1" d="M1082.13,1750.5l.88.14c-.39.6-.73.34-.88-.14Z"/>
  <path class="cls-1" d="M523.97,596.63c-1.23-.21-1.22,1.38,0,1.17.17,38.68,6.78,75.92,16.24,112.94,14.49,56.73,37.8,109.5,69.05,158.95,27.44,43.43,59.94,83.11,96.83,118.83,16.38,15.87,33.29,29.88,50.86,44.1,3.49,2.83,6.9,4.68,11.31,5.72,27.7,6.51,54.26,14.54,80.47,25.88,29.85,12.92,57.57,28.62,83.62,48.15,36.27,27.19,67.81,59.16,93.66,96.28,9.74,14,17.53,27.74,25.64,42.58,13.9,25.45,23.93,51.74,32.3,79.51,10.21,33.88,13.98,65.32,17.22,101.41-.02,2.57.84.97,1.53-.98,14.91-75.78,13.06-142.1-6.56-216.62-3.91-14.86-7.57-28.54-13.22-42.74-8.15-20.49-16.54-40.08-28.07-59.04l-40.41-66.45-25.44-46.58c-10.37-18.99-18.83-37.74-27.85-57.41-14.96-32.62-27.68-65.18-38.18-99.56-7.49-24.49-14.75-47.94-19.82-73.18-17.04-84.97-21.39-155.99-2.43-241.24,17.34-77.94,66.06-159.43,133.81-201.9l8.11-5.08c60.06-37.65,125.43-52.87,196.42-51.83,43.75.64,85.82,7.72,127.9,19.11,34.34,9.29,66.95,20.39,99.55,34.52,133.55,57.9,239.38,141.04,339.18,244.68,3.01,4.6,6.43,9.78,8.96,14.28,2.13,3.77.65,8.64,3.36,11.74-69.85-35.86-141.56-64.57-219.32-81.17-113.09-24.14-241.91-18.57-342.2,43.59l-4.92,3.05c-21.81,13.52-41.25,29.22-59.61,47.39-29.72,29.41-52.86,63.94-70.85,101.8-31.58,66.45-44.76,148.61-44.08,222.19.46,49.57,5.49,97.97,15.46,146.25,1.79,8.69,9.12,42.72,17.48,47.12,7.56-43.85,25.44-84.37,53.97-118.36,1.58-1.89,2.81-3.09,4.19-5.04,5.89-8.32,13.3-15.12,20.51-22.32,30.9-30.87,79.12-62.44,119.71-77.06l3.77-1.36c40.57-14.61,82.01-24.37,125.3-26.75,40.38-2.21,80.34-.72,119.58,8.33l10.58,2.44c54.78,12.64,105.91,36.61,151.4,69.38,3.06,2.21,4.72,4.72,8.05,6.34,6.08,2.94,10.66,8.35,16.22,12.82,10.9,8.76,20.47,18.69,30.25,28.67l5.07,5.17c21.23,21.65,37.11,47.95,49.94,75.71,20.11,43.5,28.21,90.6,22.55,139.04-44.44-46.06-93.75-80.59-149.51-108.92l-26.69-12.43-5.71-2.26c-37.95-15-75.75-27.94-115.78-36.26-53.84-11.18-108.29-14.68-163.45-11.66-92.7,5.09-182.77,31.46-262.83,77.81-3.13,1.81-5.57,2.94-6.94,6.21,15.08,13.5,27.58,28.42,39.52,44.47,8.66,11.65,16.55,22.54,23.95,35.07,56.73,96.06,71.08,210.25,42.23,318.18-22.13,82.79-73.36,162.46-140.95,215.24-1.64,1.28-3.22,2.09-3.68,3.81-9.04.26-17.07-1.02-25.56-2.48l-15.47-2.65c-4.7-.81-27.24-2.4-34.2-2.9l-12.03-.87c-13.24-.96-17.45-1.43-31.01-.07-2.95.3-5.76-.1-8.81.13l-33.6,2.57c-6.59.5-12.86,1.96-19.51,2.55l-21.01,1.87-17.05,2.75c-5.48.88-9.8,1.96-14.87,3.2l-22.01,5.38c-6.26,1.53-12.47,2.19-18.29,5.59-1.27.74-13.63,3.77-13.72,2.29-94.13-9.67-180.24-49.67-246.85-117.12-19.55-19.8-36.12-41.17-49.92-65.13-6.67-11.57-11.48-22.71-16.2-35.11-19.06-49.99-20.29-101.79,4.42-149.97.66-1.29,1.9-2.15,2.6-1.2.56.77.44,1.7.85,2.63,28.51,63.59,70.72,115.19,123.34,160.51,83.63,72.03,193.09,120.89,304.16,127.89,18.94-40.94,31.46-83.52,38.11-127.94,11.74-78.48,1.82-160.47-25.74-234.65-8.85-23.81-19.81-45.82-31.79-68.01-8.96-16.59-19.16-31.35-30.2-46.71-28.65-39.9-62.53-73.08-101.85-102.2-29.26-4-57.2-7.66-85.95-14.15-45.93-10.36-89.93-25.06-132.37-45.41-47.16-22.61-91.07-50.2-130.23-84.78-54.25-47.91-95.76-99.77-126.7-165.19-18.13-38.34-30.58-77.6-37.61-119.35-8.93-53.06-8.67-100.56.63-153.43,14.16-80.51,49.59-155.8,99.94-219.92,69.14-88.03,160.58-150.63,265.06-189.91,56.42-21.21,114.74-35.19,175.16-40.82-7.9,7.19-15.76,12.49-24.02,19-44.77,35.33-85.01,75.49-120.08,120.56-16.52,21.23-30.46,42.98-44.25,65.79-9.43,15.58-17.24,30.54-25.15,47.06-23.11,48.3-39.66,99.14-48.46,152.19-6.35,38.27-7.22,76.21-7.04,114.28Z"/>
  <path class="cls-2" d="M523.97,597.8c-1.22.21-1.23-1.37,0-1.17v1.17Z"/>
</svg>